<svg xmlns="http://www.w3.org/2000/svg" viewBox="56 39 120 120" fill="none">
  <path d="M80.5204 41.1542C92.7565 36.7524 103.821 41.7028 112.915 49.9393C121.637 57.8398 128.628 68.8293 133.252 77.7597C133.562 75.5656 133.585 72.7589 133.585 69.6776C133.585 65.9187 133.555 61.7863 134.019 58.037C134.483 54.2985 135.447 50.8452 137.51 48.5009C139.42 46.3289 142.21 45.1774 146.191 45.5204C145.106 46.7623 144.174 48.1403 143.422 49.6083C137.28 62.4446 142.625 77.0797 137.701 89.4833C136.909 91.3371 135.821 93.151 134.667 94.912C133.407 91.7338 132.224 88.4634 130.595 85.3446C125.907 76.3755 120.711 67.513 113.725 59.9686C107.805 53.5567 99.9273 48.2311 91.0428 47.2304C88.9832 46.9834 86.9057 46.9585 84.8485 47.1317C84.4889 45.8871 83.7805 44.7619 82.8709 43.9052C82.7261 43.7676 82.5756 43.636 82.4217 43.5106C82.5255 43.6798 82.6253 43.851 82.7205 44.0223C83.3688 45.1843 83.802 46.3967 84.0008 47.6327C84.0668 48.0383 84.1099 48.4476 84.1307 48.8583C84.2147 50.5215 83.9488 52.2209 83.5223 53.9403C83.4747 54.1316 83.4255 54.3234 83.3739 54.5155C83.4861 54.3512 83.5933 54.1838 83.6971 54.0136C84.6284 52.491 85.2238 50.6753 85.1287 48.8075C85.1135 48.5068 85.0777 48.2063 85.0262 47.9091C86.9942 47.9015 88.9491 48.0677 90.8641 48.4179C99.298 49.9121 106.498 55.1167 112.263 61.3329C119.036 68.643 124.211 77.3541 128.931 86.2177C130.771 89.6674 132.081 93.422 133.661 97.1337L134.299 98.6366L135.205 97.2889C136.708 95.0095 138.163 92.7259 139.249 90.1024C144.206 76.7346 138.569 62.426 144.237 50.0155C145.004 48.4265 145.986 46.9413 147.156 45.6122C150.788 42.0916 156.328 39.0194 162.042 39.7948C180.516 42.3022 192.564 44.0716 224.676 40.2938C225.302 40.2202 225.841 40.4097 226.234 40.8544C226.602 41.2702 226.8 41.8627 226.895 42.5253C227.087 43.8552 226.902 45.7312 226.465 47.8895C223.752 61.262 218.083 71.8688 209.658 79.2597C201.303 86.5891 190.276 90.7182 176.84 91.2841C175.136 96.3629 171.672 102.522 167.724 108.508C163.809 114.444 159.396 120.241 155.705 124.7C160.099 127.758 164.953 129.786 169.787 132.086C174.758 134.451 179.672 137.096 183.828 141.436C183.862 141.47 183.936 141.518 184.121 141.527C184.311 141.537 184.569 141.504 184.905 141.42C185.581 141.251 186.434 140.916 187.449 140.523C189.437 139.754 191.974 138.79 194.474 138.79C199.369 138.79 204.33 140.58 207.369 144.482C215.076 154.384 213.606 166.723 211.823 179.016C210.026 191.404 207.916 203.753 213.877 214.143C214.668 215.521 215.668 216.951 216.885 218.177C217.447 218.744 217.524 219.678 216.966 220.307L216.427 220.913C216.067 221.317 215.51 221.506 214.97 221.373C204.483 218.804 194.513 210.782 194.513 199.023C194.513 196.113 195.273 191.458 196.137 186.213C197.005 180.942 197.985 175.034 198.45 169.551C198.916 164.051 198.856 159.056 197.69 155.583C197.11 153.855 196.271 152.547 195.129 151.727C193.996 150.915 192.508 150.539 190.539 150.785L190.54 150.786C190.07 150.848 189.026 151.06 188.2 151.431C188.889 155.304 189.044 160.26 188.064 166.35L188.062 166.362L188.06 166.373C187.09 171.034 184.931 175.956 181.135 179.718C177.42 183.399 172.164 185.94 165.009 186.06C165.184 188.665 165.68 192.507 166.653 196.159C167.173 198.111 167.825 199.995 168.627 201.603C169.431 203.216 170.372 204.519 171.452 205.342C172.465 206.114 172.708 207.206 172.586 208.162C172.467 209.088 171.998 209.963 171.472 210.407C163.93 216.766 158.002 223.226 153.96 228.096C151.939 230.53 150.39 232.567 149.348 233.993C148.826 234.706 148.432 235.267 148.168 235.648C148.036 235.839 147.937 235.985 147.871 236.083C147.838 236.132 147.813 236.169 147.797 236.193C147.789 236.205 147.782 236.215 147.778 236.221C147.777 236.223 147.774 236.227 147.774 236.227L147.773 236.228L147.745 236.271L147.709 236.308C147.171 236.845 146.433 236.878 145.936 236.95C145.399 237.028 144.891 237.147 144.383 237.655L144.382 237.654C143.907 238.13 143.658 238.503 143.571 238.81C143.495 239.078 143.529 239.344 143.764 239.678C144.175 240.262 144.485 241.227 144.295 242.059C144.195 242.497 143.951 242.914 143.503 243.185C143.064 243.451 142.492 243.541 141.799 243.462C140.581 243.323 137.609 243.244 134.542 243.241C131.477 243.238 128.378 243.31 126.907 243.463C126.467 243.509 125.962 243.428 125.722 242.962C125.617 242.759 125.599 242.541 125.614 242.349C125.63 242.154 125.682 241.953 125.752 241.755C126.026 240.982 126.69 239.967 127.438 238.979C128.198 237.977 129.083 236.951 129.846 236.141C130.227 235.736 130.581 235.38 130.877 235.107C131.154 234.851 131.426 234.622 131.629 234.519C132.347 234.155 133.099 233.835 133.755 233.521C134.431 233.198 135.069 232.856 135.675 232.401C136.191 232.014 136.533 231.311 136.91 230.389C137.266 229.519 137.65 228.465 138.289 227.646C138.465 227.422 138.871 227.022 139.407 226.521C139.956 226.008 140.676 225.358 141.507 224.619C143.169 223.141 145.29 221.297 147.415 219.458C151.683 215.765 155.936 212.121 156.621 211.436C157.254 210.803 157.876 209.716 158.198 208.683C158.358 208.169 158.434 207.701 158.416 207.335C158.397 206.962 158.289 206.776 158.175 206.69C150.936 201.262 142.297 194.302 136.935 186.184C136.692 185.685 136.494 185.145 136.343 184.58C135.151 179.515 136.526 173.199 139.913 168.992C141.212 167.559 142.56 166.151 143.893 164.721C147.197 161.223 150.851 157.928 153.876 154.105C154.299 153.537 154.722 152.958 154.974 152.302C154.677 152.937 154.218 153.477 153.76 154.011C150.489 157.589 146.657 160.577 143.056 163.883C141.752 165.096 140.429 166.298 139.125 167.536C137.061 166.677 134.983 165.867 132.89 165.109C132.77 165.066 132.649 165.022 132.529 164.979C132.638 165.045 132.748 165.112 132.857 165.178C134.659 166.266 136.433 167.394 138.178 168.557C134.366 173.146 132.677 179.078 133.562 185.206C133.708 185.962 133.92 186.721 134.224 187.463C134.486 189.085 134.832 190.807 135.28 192.488C135.8 194.44 136.452 196.325 137.254 197.933C138.058 199.545 138.998 200.847 140.078 201.67C141.092 202.442 141.334 203.535 141.212 204.491C141.093 205.418 140.624 206.292 140.098 206.736C132.56 213.091 126.664 219.756 122.653 224.833C120.648 227.371 119.115 229.511 118.084 231.015C117.568 231.766 117.178 232.36 116.918 232.764C116.788 232.965 116.69 233.121 116.625 233.225C116.593 233.276 116.568 233.316 116.552 233.342C116.544 233.354 116.538 233.364 116.534 233.37C116.532 233.373 116.529 233.377 116.529 233.377L116.528 233.379L116.497 233.431L116.455 233.473C116.162 233.766 115.809 233.89 115.478 233.951C115.166 234.009 114.808 234.018 114.52 234.037C113.911 234.077 113.37 234.168 112.883 234.655L112.882 234.654C112.507 235.03 112.394 235.464 112.433 235.908C112.474 236.369 112.682 236.844 112.955 237.231C113.425 237.898 113.471 238.923 113.075 239.705C112.869 240.111 112.535 240.472 112.061 240.683C111.588 240.893 111.016 240.937 110.364 240.789C109.29 240.545 106.845 240.418 104.122 240.42C101.416 240.422 98.5081 240.551 96.537 240.798C95.9908 240.866 95.4559 240.805 95.1131 240.431C94.7704 240.055 94.7826 239.543 94.8748 239.123C95.0632 238.265 95.7243 237.14 96.4862 236.058C97.2631 234.955 98.1979 233.824 99.0037 232.934C99.4068 232.49 99.782 232.1 100.093 231.804C100.248 231.656 100.39 231.526 100.514 231.424C100.632 231.327 100.758 231.232 100.875 231.173C101.63 230.79 102.259 230.604 102.799 230.411C103.337 230.219 103.832 230.008 104.421 229.566C104.679 229.373 104.965 229.043 105.276 228.598C105.583 228.158 105.893 227.637 106.207 227.086C106.82 226.01 107.465 224.781 108.081 223.993C108.253 223.772 108.616 223.405 109.089 222.951C109.572 222.487 110.197 221.906 110.918 221.248C112.36 219.931 114.193 218.296 116.053 216.644C119.783 213.331 123.596 209.973 124.621 208.947C125.617 207.951 126.416 206.713 126.74 205.607C127.065 204.497 126.886 203.676 126.197 203.217C115.275 195.936 111.08 189.032 111.914 182.144C112.328 178.727 113.978 175.382 116.541 172.074C118.97 168.938 122.238 165.81 126.105 162.655C116.506 158.456 106.931 151.912 100.221 143.572C104.544 146.308 109.072 148.843 114.171 150.328C115.145 150.549 115.828 150.446 116.608 150.287C116.991 150.197 117.376 150.076 117.781 149.854C118.163 149.634 118.694 149.278 118.886 148.529C119.838 144.723 121.443 140.807 123.871 137.638C126.339 134.501 130.499 133.053 134.535 132.537C135.507 132.411 136.493 132.335 137.475 132.302C136.493 132.268 135.502 132.278 134.516 132.338C130.435 132.592 126.047 133.711 123.08 136.966C120.266 140.189 118.396 143.98 117.065 148.074C117.095 147.969 117.063 148.057 116.88 148.134C116.707 148.212 116.463 148.279 116.21 148.318C115.719 148.4 115.064 148.383 114.779 148.275C107.383 145.58 101.128 140.205 94.5057 135.339C94.2111 135.125 93.9136 134.912 93.6112 134.699C92.7635 134.019 92.0015 133.526 91.3036 133.271C90.6299 133.026 89.7416 133.019 88.9647 133.252C88.1778 133.488 87.6266 133.927 87.4491 134.459C87.1538 135.345 86.7509 136.281 86.3231 137.258C85.8926 138.24 85.4337 139.271 85.0106 140.371C84.166 142.567 83.4746 145.017 83.4745 147.801C83.4745 148.82 83.3782 149.794 83.325 150.697C83.2711 151.615 83.2586 152.494 83.4061 153.409C83.6974 155.215 84.6302 157.249 87.328 159.947C87.6594 160.279 87.6937 160.736 87.6317 161.13C87.5684 161.531 87.3914 161.98 87.1541 162.438C86.6762 163.362 85.8879 164.447 84.9793 165.503C84.0677 166.563 83.0168 167.613 81.9989 168.466C80.9933 169.308 79.9754 169.994 79.1327 170.275C77.8314 170.709 76.6976 169.991 75.7537 168.857C74.8009 167.713 73.9005 165.991 73.0174 164.004C72.4709 162.774 72.2681 161.558 72.1717 160.43C72.1237 159.868 72.1012 159.32 72.078 158.808C72.0545 158.29 72.0304 157.809 71.9784 157.358C71.8657 156.384 71.602 155.276 71.6336 154.058C71.6666 152.793 72.0048 151.366 73.0409 149.553C73.7978 148.228 74.6144 146.115 75.408 143.637C76.1988 141.167 76.9578 138.367 77.6034 135.687C78.249 133.008 78.7805 130.455 79.119 128.483C79.2884 127.497 79.4083 126.661 79.4705 126.031C79.5017 125.716 79.517 125.459 79.5184 125.265C79.5191 125.168 79.5168 125.091 79.5116 125.035C79.5062 124.978 79.5 124.957 79.5008 124.959C79.4098 124.685 79.4404 124.408 79.5223 124.159C79.7066 123.936 80.0923 123.598 80.4803 123.347C81.4095 122.726 82.5265 122.199 83.6512 121.763C84.2162 121.545 84.7908 121.349 85.3602 121.191C85.6407 121.114 85.926 121.044 86.1883 120.996C86.3173 120.972 86.4464 120.953 86.5457 120.944C86.5943 120.936 86.6525 120.939 86.6727 120.937C87.9755 121.443 89.6818 122.398 91.203 123.167C92.5182 123.845 93.8413 124.519 95.1766 125.173C97.1578 126.14 99.1643 127.072 101.24 127.867C105.921 129.775 110.522 132.644 113.597 136.817C113.994 137.425 114.342 138.087 114.474 138.808C114.392 138.079 114.085 137.382 113.724 136.739C110.884 132.29 106.468 129.081 101.71 126.748C100.131 126.016 98.5875 125.192 97.0604 124.332C97.0468 124.118 97.0309 124.122 97.0204 124.055C97.0071 123.998 96.9953 123.956 96.9842 123.917C96.9623 123.84 96.9421 123.777 96.9227 123.716C96.8843 123.597 96.8464 123.481 96.8231 123.412C96.7848 123.28 96.7472 123.149 96.7108 123.019C94.6781 116.715 95.4434 109.48 100.696 104.642C100.954 104.361 101.215 104.081 101.475 103.802C101.18 104.045 100.886 104.289 100.593 104.535C95.0861 108.246 92.8186 115.738 93.7205 122.39C93.2005 122.079 92.6802 121.768 92.161 121.454C90.5871 120.533 89.3003 119.606 87.3426 118.704C86.8778 118.564 86.6919 118.593 86.453 118.588C86.2381 118.591 86.0401 118.607 85.8543 118.628C85.4809 118.67 85.1316 118.732 84.7928 118.801C84.1099 118.941 83.4567 119.116 82.8075 119.316C81.5115 119.724 80.2472 120.204 78.9832 120.922C78.5891 121.166 78.1832 121.398 77.7782 121.738C77.2293 121.307 76.7358 120.917 76.2977 120.581C75.7764 120.181 75.3445 119.861 75.0028 119.635C74.832 119.521 74.6902 119.436 74.577 119.377C74.4578 119.315 74.3957 119.295 74.3768 119.291C74.2636 119.268 74.1109 119.293 73.8905 119.481C73.663 119.676 73.414 120.007 73.1532 120.478C72.6333 121.418 72.1391 122.781 71.6786 124.315C71.2202 125.842 70.8041 127.508 70.4325 129.039C70.0629 130.561 69.7342 131.964 69.4559 132.938C69.1869 133.88 68.7001 134.72 68.2801 135.476C67.8476 136.255 67.4849 136.945 67.3495 137.671C67.2195 138.368 67.2962 139.126 67.8172 140.038C68.3489 140.969 69.3487 142.068 71.0868 143.405C71.4618 143.694 71.5443 144.132 71.5077 144.524C71.4713 144.911 71.3163 145.341 71.1034 145.773C70.6735 146.646 69.9341 147.678 69.0711 148.683C68.2044 149.693 67.1932 150.699 66.2039 151.519C65.2258 152.33 64.2269 152.995 63.3866 153.275C62.8881 153.441 62.4219 153.576 61.9881 153.592C61.5244 153.608 61.1028 153.49 60.7069 153.182C60.3334 152.891 60.005 152.448 59.6688 151.863C59.3296 151.274 58.959 150.497 58.5174 149.504C57.4558 147.115 57.1975 145.255 56.9784 143.358C56.9254 142.901 56.7909 142.531 56.6317 142.163C56.4794 141.811 56.2732 141.398 56.1512 140.954C55.884 139.981 56.0034 138.868 57.0409 137.053C58.5862 134.348 60.9488 128.635 62.868 123.262C63.8257 120.58 64.6684 117.997 65.2391 115.934C65.5246 114.902 65.7396 114.007 65.868 113.3C66.0012 112.566 66.0257 112.107 65.9842 111.899C65.8194 111.074 66.1608 110.272 66.6688 109.595C67.1825 108.91 67.9182 108.279 68.6971 107.76C69.4785 107.239 70.3292 106.813 71.0916 106.548C71.4727 106.415 71.8431 106.319 72.1786 106.274C72.5051 106.231 72.8419 106.23 73.1327 106.327C73.2941 106.381 73.6324 106.548 74.0555 106.768C74.4993 106.999 75.0861 107.315 75.7782 107.692C77.1631 108.447 78.9775 109.454 80.9256 110.54C84.5071 112.537 88.5411 114.8 91.2088 116.269C91.447 113.692 91.9777 111.05 92.8358 108.351C93.7616 105.22 94.5046 100.098 94.3534 95.1444C94.2777 92.6673 93.9796 90.2498 93.3778 88.1552C92.7746 86.0561 91.8777 84.318 90.6336 83.1552C90.0847 82.642 89.5586 82.2592 89.0575 81.9813C91.7586 79.434 94.2119 76.342 94.868 72.5067C95.6663 67.8535 93.3538 63.6134 90.6219 60.3641C90.3233 60.009 90.0077 59.6497 89.6756 59.287C89.9691 59.6815 90.2446 60.0707 90.5018 60.454C92.897 63.9627 94.5423 68.2773 93.4032 72.1864C92.305 76.0873 89.039 78.904 85.6327 81.2333C85.2466 81.4973 84.8565 81.7559 84.4676 82.0097C84.4691 82.0117 84.471 82.0135 84.4725 82.0155C83.1418 82.7547 82.0505 83.9576 81.2235 84.8397C80.403 85.7151 79.9667 87.1484 79.6239 88.6493C79.4601 89.3661 79.3098 90.1317 79.1541 90.7606C78.9985 91.3895 78.8124 91.9951 78.533 92.4237C76.8699 94.9741 74.4685 95.9254 72.0809 95.8514C69.6151 95.775 67.1633 94.3345 65.533 92.5399C64.7138 91.638 64.0786 90.6218 63.7518 89.6034C63.4248 88.5845 63.3975 87.5286 63.8543 86.5985C64.9767 84.3135 66.1995 80.1825 67.0389 75.9911C67.8809 71.7869 68.314 67.6337 67.9198 65.2831C67.4826 62.6766 68.2448 60.9113 69.117 59.5546C69.3317 59.2207 69.5532 58.9111 69.7596 58.6259C69.9686 58.3371 70.1586 58.0779 70.325 57.827C70.6623 57.3187 70.8501 56.9191 70.8729 56.5399C71.0969 52.7882 72.0932 50.7482 73.0194 49.3026C72.5088 48.2315 72.3836 47.3689 72.452 46.2655C72.4878 45.6891 72.5758 45.0426 72.6805 44.2772C72.786 43.5063 72.9115 42.5979 73.0272 41.4755L73.0995 40.7714L73.7391 41.0751C74.4475 41.4115 75.0073 41.5639 75.5838 41.7802C76.021 41.9441 76.4411 42.1409 76.8153 42.4774C76.8694 42.4472 76.9238 42.4164 76.9793 42.3876C77.271 42.2364 77.5706 42.0973 77.8758 41.9706C77.9469 41.4839 78.0252 40.9794 78.1121 40.4579L78.2284 39.7597L78.8485 40.1034C79.4528 40.4389 80.0088 40.7907 80.5204 41.1542Z" fill="#6B7280"/>
</svg>
